<?xml version="1.0" standalone="no"?>
<svg xmlns:xlink="http://www.w3.org/1999/xlink" id="wave" style="transform:rotate(180deg); transition: 0.3s" viewBox="0 0 1440 490" version="1.1" xmlns="http://www.w3.org/2000/svg"><defs><linearGradient id="sw-gradient-0" x1="0" x2="0" y1="1" y2="0"><stop stop-color="rgba(128.994, 128.964, 128.954, 1)" offset="0%"/><stop stop-color="rgba(208.682, 205.726, 199.191, 1)" offset="100%"/></linearGradient></defs><path style="transform:translate(0, 0px); opacity:1" fill="url(#sw-gradient-0)" d="M0,147L26.7,130.7C53.3,114,107,82,160,81.7C213.3,82,267,114,320,155.2C373.3,196,427,245,480,261.3C533.3,278,587,261,640,212.3C693.3,163,747,82,800,57.2C853.3,33,907,65,960,81.7C1013.3,98,1067,98,1120,138.8C1173.3,180,1227,261,1280,245C1333.3,229,1387,114,1440,65.3C1493.3,16,1547,33,1600,73.5C1653.3,114,1707,180,1760,220.5C1813.3,261,1867,278,1920,277.7C1973.3,278,2027,261,2080,261.3C2133.3,261,2187,278,2240,253.2C2293.3,229,2347,163,2400,130.7C2453.3,98,2507,98,2560,122.5C2613.3,147,2667,196,2720,253.2C2773.3,310,2827,376,2880,359.3C2933.3,343,2987,245,3040,236.8C3093.3,229,3147,310,3200,334.8C3253.3,359,3307,327,3360,277.7C3413.3,229,3467,163,3520,122.5C3573.3,82,3627,65,3680,73.5C3733.3,82,3787,114,3813,130.7L3840,147L3840,490L3813.3,490C3786.7,490,3733,490,3680,490C3626.7,490,3573,490,3520,490C3466.7,490,3413,490,3360,490C3306.7,490,3253,490,3200,490C3146.7,490,3093,490,3040,490C2986.7,490,2933,490,2880,490C2826.7,490,2773,490,2720,490C2666.7,490,2613,490,2560,490C2506.7,490,2453,490,2400,490C2346.7,490,2293,490,2240,490C2186.7,490,2133,490,2080,490C2026.7,490,1973,490,1920,490C1866.7,490,1813,490,1760,490C1706.7,490,1653,490,1600,490C1546.7,490,1493,490,1440,490C1386.7,490,1333,490,1280,490C1226.7,490,1173,490,1120,490C1066.7,490,1013,490,960,490C906.7,490,853,490,800,490C746.7,490,693,490,640,490C586.7,490,533,490,480,490C426.7,490,373,490,320,490C266.7,490,213,490,160,490C106.7,490,53,490,27,490L0,490Z"/></svg>